<?xml version="1.0" encoding="utf-8"?>
<!-- Generator: Adobe Illustrator 19.0.0, SVG Export Plug-In . SVG Version: 6.00 Build 0)  -->
<svg version="1.1" id="Layer_3" xmlns="http://www.w3.org/2000/svg" xmlns:xlink="http://www.w3.org/1999/xlink" x="0px" y="0px"
	 viewBox="0 0 69.4 51.1" style="enable-background:new 0 0 69.4 51.1;" xml:space="preserve">
<style type="text/css">
	.st0{fill:#2FA3C2;}
	.st1{fill:#F32F94;}
</style>
<g id="XMLID_134_">
	<g id="XMLID_69_">
		<rect id="XMLID_58_" x="31.9" y="49.6" class="st0" width="21.9" height="1.2"/>
	</g>
	<g id="XMLID_60_">
		<rect id="XMLID_54_" x="48.1" y="7.5" class="st0" width="11.2" height="1.2"/>
	</g>
	<g id="XMLID_56_">
		<rect id="XMLID_53_" x="48.1" y="10.3" class="st0" width="14.5" height="1.2"/>
	</g>
	<g id="XMLID_59_">
		<rect id="XMLID_52_" x="37.7" y="18.5" class="st0" width="14.5" height="1.2"/>
	</g>
	<g id="XMLID_88_">
		<rect id="XMLID_51_" x="9.7" y="32.8" class="st0" width="5.3" height="1.2"/>
	</g>
	<g id="XMLID_72_">
		<path id="XMLID_36_" class="st0" d="M28.3,51.1h-4.7V5.4L25.9,0l2.4,5.4V51.1z M24.8,49.9h2.3V5.6L25.9,3l-1.1,2.6V49.9z"/>
	</g>
	<g id="XMLID_55_">
		<path id="XMLID_33_" class="st1" d="M39.5,13c-1.8,0-3.2-1.4-3.2-3.2c0-1.8,1.4-3.2,3.2-3.2s3.2,1.4,3.2,3.2
			C42.7,11.6,41.3,13,39.5,13z M39.5,7.8c-1.1,0-2,0.9-2,2c0,1.1,0.9,2,2,2s2-0.9,2-2C41.5,8.7,40.6,7.8,39.5,7.8z"/>
	</g>
	<g id="XMLID_83_">
		<path id="XMLID_30_" class="st1" d="M10.5,16c-1.8,0-3.2-1.4-3.2-3.2c0-1.8,1.4-3.2,3.2-3.2s3.2,1.4,3.2,3.2
			C13.7,14.6,12.3,16,10.5,16z M10.5,10.8c-1.1,0-2,0.9-2,2c0,1.1,0.9,2,2,2s2-0.9,2-2C12.5,11.7,11.6,10.8,10.5,10.8z"/>
	</g>
	<g id="XMLID_87_">
		<path id="XMLID_27_" class="st1" d="M5.5,35.8c-1.1,0-1.9-0.9-1.9-1.9s0.9-1.9,1.9-1.9s1.9,0.9,1.9,1.9S6.6,35.8,5.5,35.8z
			 M5.5,33.1c-0.4,0-0.7,0.3-0.7,0.7s0.3,0.7,0.7,0.7s0.7-0.3,0.7-0.7S5.9,33.1,5.5,33.1z"/>
	</g>
	<g id="XMLID_89_">
		<path id="XMLID_24_" class="st1" d="M9.5,47.8c-1.1,0-1.9-0.9-1.9-1.9c0-1.1,0.9-1.9,1.9-1.9s1.9,0.9,1.9,1.9
			C11.4,46.9,10.6,47.8,9.5,47.8z M9.5,45.1c-0.4,0-0.7,0.3-0.7,0.7s0.3,0.7,0.7,0.7s0.7-0.3,0.7-0.7S9.9,45.1,9.5,45.1z"/>
	</g>
	<g id="XMLID_1_">
		<polygon id="XMLID_2_" class="st0" points="67.2,26.6 68.4,26.6 68.4,1 31.9,1 31.9,49.9 33.1,49.9 33.1,2.2 67.2,2.2 		"/>
		<rect id="XMLID_23_" x="37.7" y="24.5" class="st0" width="26.8" height="1.2"/>
		<rect id="XMLID_39_" x="37.7" y="27.3" class="st0" width="26.8" height="1.2"/>
		<path id="XMLID_42_" class="st0" d="M55.8,29.3v0.8H37.7v1.2h18.1V33H37.7v1.2h18.1v1.6H37.7V37h18.1v1.6H37.7v1.2h18.1v10.8h13.5
			V29.3H55.8z M68.2,49.5H57v-19h11.1V49.5z"/>
	</g>
	<g id="XMLID_70_">
		<path id="XMLID_14_" class="st1" d="M62.8,39c-1.6,0-2.9-1.3-2.9-2.9c0-1.6,1.3-2.9,2.9-2.9c1.6,0,2.9,1.3,2.9,2.9
			C65.7,37.7,64.4,39,62.8,39z M62.8,34.3c-1,0-1.8,0.8-1.8,1.8c0,1,0.8,1.8,1.8,1.8s1.8-0.8,1.8-1.8C64.6,35.1,63.8,34.3,62.8,34.3
			z"/>
	</g>
	<g id="XMLID_71_">
		<rect id="XMLID_15_" x="59.5" y="41.3" class="st0" width="7" height="1.2"/>
	</g>
	<path id="XMLID_190_" class="st0" d="M1,1.3v6.5H0V9h1v1.6H0v1.2h1v1.6H0v1.2h1v1.6H0v1.2h1v1.6H0v1.2h1v5.5h18.2V1.3H1z M18,24.6
		H2.2v-4.3h1v-1.2h-1v-1.6h1v-1.2h-1v-1.6h1v-1.2h-1v-1.6h1v-1.2h-1V9h1V7.8h-1V2.5H18V24.6z"/>
	<g id="XMLID_84_">
		<path id="XMLID_8_" class="st0" d="M18.1,39.3H1v-9.9h17.1V39.3z M2.2,38.1h14.7v-7.6H2.2V38.1z"/>
	</g>
	<g id="XMLID_86_">
		<path id="XMLID_5_" class="st0" d="M18.1,51H1v-9.9h17.1V51z M2.2,49.8h14.7v-7.6H2.2V49.8z"/>
	</g>
	<g id="XMLID_90_">
		<path id="XMLID_4_" class="st1" d="M28.3,36h-4.7V20.1h4.7V36z M24.8,34.8h2.3V21.3h-2.3V34.8z"/>
	</g>
</g>
</svg>
